<svg xmlns="http://www.w3.org/2000/svg" viewBox="0 0 219.37 203.45"><defs><style>.cls-1{fill:none;stroke:#fff;stroke-miterlimit:10;stroke-width:22px;}</style></defs><g id="Layer_2" data-name="Layer 2"><g id="Layer_2-2" data-name="Layer 2"><path class="cls-1" d="M59.58,57.42,26.35,25.63A8.5,8.5,0,0,1,32.23,11h97.08A62.06,62.06,0,0,1,175,30.56c16.26,17.6,23,42.73,15.94,65.89-9.62,31.63-42.79,52.47-77.53,47l-35.87,49h-58a8.49,8.49,0,0,1-7-13.38L102.74,50.94a8.5,8.5,0,0,1,13.9,0L206.8,179a8.51,8.51,0,0,1-7,13.41H119.19"/></g></g></svg>